<?xml version="1.0" encoding="UTF-8" standalone="no"?>
<!DOCTYPE svg PUBLIC "-//W3C//DTD SVG 1.1//EN"
 "http://www.w3.org/Graphics/SVG/1.1/DTD/svg11.dtd">
<!-- Generated by graphviz version 7.0.4 (20221203.1631)
 -->
<!-- Title: family&#45;tree Pages: 1 -->
<svg width="476pt" height="296pt"
 viewBox="0.00 0.00 476.00 296.00" xmlns="http://www.w3.org/2000/svg" xmlns:xlink="http://www.w3.org/1999/xlink">
<g id="graph0" class="graph" transform="scale(1 1) rotate(0) translate(4 292)">
<title>family&#45;tree</title>
<!-- 3 -->
<g id="node1" class="node">
<title>3</title>
<path fill="#757171" stroke="black" d="M132,-288C132,-288 12,-288 12,-288 6,-288 0,-282 0,-276 0,-276 0,-228 0,-228 0,-222 6,-216 12,-216 12,-216 132,-216 132,-216 138,-216 144,-222 144,-228 144,-228 144,-276 144,-276 144,-282 138,-288 132,-288"/>
<text text-anchor="start" x="68" y="-263.8" font-family="Calibri" font-size="14.00" fill="#aeaaaa">3</text>
<text text-anchor="start" x="36" y="-249.4" font-family="Calibri" font-weight="bold" font-size="12.00" fill="#aeaaaa">Paul Kluge, Jr.</text>
<text text-anchor="start" x="26" y="-231.8" font-family="Calibri" font-size="14.00" fill="#aeaaaa">FoundingFather</text>
</g>
<!-- 10 -->
<g id="node2" class="node">
<title>10</title>
<path fill="#757171" stroke="black" d="M132,-180C132,-180 12,-180 12,-180 6,-180 0,-174 0,-168 0,-168 0,-120 0,-120 0,-114 6,-108 12,-108 12,-108 132,-108 132,-108 138,-108 144,-114 144,-120 144,-120 144,-168 144,-168 144,-174 138,-180 132,-180"/>
<text text-anchor="start" x="64" y="-155.8" font-family="Calibri" font-size="14.00" fill="#aeaaaa">10</text>
<text text-anchor="start" x="46" y="-141.4" font-family="Calibri" font-weight="bold" font-size="12.00" fill="#aeaaaa">Lee Fuqua</text>
<text text-anchor="start" x="26" y="-123.8" font-family="Calibri" font-size="14.00" fill="#aeaaaa">FoundingFather</text>
</g>
<!-- 3&#45;&gt;10 -->
<g id="edge1" class="edge">
<title>3&#45;&gt;10</title>
<path fill="none" stroke="black" d="M72,-215.7C72,-207.93 72,-199.57 72,-191.43"/>
<polygon fill="black" stroke="black" points="75.5,-191.66 72,-181.66 68.5,-191.66 75.5,-191.66"/>
</g>
<!-- 19 -->
<g id="node3" class="node">
<title>19</title>
<path fill="#757171" stroke="black" d="M132,-72C132,-72 12,-72 12,-72 6,-72 0,-66 0,-60 0,-60 0,-12 0,-12 0,-6 6,0 12,0 12,0 132,0 132,0 138,0 144,-6 144,-12 144,-12 144,-60 144,-60 144,-66 138,-72 132,-72"/>
<text text-anchor="start" x="64" y="-47.8" font-family="Calibri" font-size="14.00" fill="#aeaaaa">19</text>
<text text-anchor="start" x="50.5" y="-33.4" font-family="Calibri" font-weight="bold" font-size="12.00" fill="#aeaaaa">Bill Cave</text>
<text text-anchor="start" x="26" y="-15.8" font-family="Calibri" font-size="14.00" fill="#aeaaaa">FoundingFather</text>
</g>
<!-- 10&#45;&gt;19 -->
<g id="edge2" class="edge">
<title>10&#45;&gt;19</title>
<path fill="none" stroke="black" d="M72,-107.7C72,-99.93 72,-91.57 72,-83.43"/>
<polygon fill="black" stroke="black" points="75.5,-83.66 72,-73.66 68.5,-83.66 75.5,-83.66"/>
</g>
<!-- 14 -->
<g id="node4" class="node">
<title>14</title>
<path fill="#757171" stroke="black" d="M294,-288C294,-288 174,-288 174,-288 168,-288 162,-282 162,-276 162,-276 162,-228 162,-228 162,-222 168,-216 174,-216 174,-216 294,-216 294,-216 300,-216 306,-222 306,-228 306,-228 306,-276 306,-276 306,-282 300,-288 294,-288"/>
<text text-anchor="start" x="226" y="-263.8" font-family="Calibri" font-size="14.00" fill="#aeaaaa">14</text>
<text text-anchor="start" x="190" y="-249.4" font-family="Calibri" font-weight="bold" font-size="12.00" fill="#aeaaaa">James Thompson</text>
<text text-anchor="start" x="188" y="-231.8" font-family="Calibri" font-size="14.00" fill="#aeaaaa">FoundingFather</text>
</g>
<!-- 18 -->
<g id="node5" class="node">
<title>18</title>
<path fill="#757171" stroke="black" d="M294,-180C294,-180 174,-180 174,-180 168,-180 162,-174 162,-168 162,-168 162,-120 162,-120 162,-114 168,-108 174,-108 174,-108 294,-108 294,-108 300,-108 306,-114 306,-120 306,-120 306,-168 306,-168 306,-174 300,-180 294,-180"/>
<text text-anchor="start" x="226" y="-155.8" font-family="Calibri" font-size="14.00" fill="#aeaaaa">18</text>
<text text-anchor="start" x="202" y="-141.4" font-family="Calibri" font-weight="bold" font-size="12.00" fill="#aeaaaa">Roy Bennett</text>
<text text-anchor="start" x="188" y="-123.8" font-family="Calibri" font-size="14.00" fill="#aeaaaa">FoundingFather</text>
</g>
<!-- 14&#45;&gt;18 -->
<g id="edge3" class="edge">
<title>14&#45;&gt;18</title>
<path fill="none" stroke="black" d="M234,-215.7C234,-207.93 234,-199.57 234,-191.43"/>
<polygon fill="black" stroke="black" points="237.5,-191.66 234,-181.66 230.5,-191.66 237.5,-191.66"/>
</g>
<!-- 25 -->
<g id="node8" class="node">
<title>25</title>
<path fill="#757171" stroke="black" d="M294,-72C294,-72 174,-72 174,-72 168,-72 162,-66 162,-60 162,-60 162,-12 162,-12 162,-6 168,0 174,0 174,0 294,0 294,0 300,0 306,-6 306,-12 306,-12 306,-60 306,-60 306,-66 300,-72 294,-72"/>
<text text-anchor="start" x="226" y="-47.8" font-family="Calibri" font-size="14.00" fill="#aeaaaa">25</text>
<text text-anchor="start" x="195" y="-33.4" font-family="Calibri" font-weight="bold" font-size="12.00" fill="#aeaaaa">Richard Barton</text>
<text text-anchor="start" x="188" y="-15.8" font-family="Calibri" font-size="14.00" fill="#aeaaaa">FoundingFather</text>
</g>
<!-- 18&#45;&gt;25 -->
<g id="edge5" class="edge">
<title>18&#45;&gt;25</title>
<path fill="none" stroke="black" d="M234,-107.7C234,-99.93 234,-91.57 234,-83.43"/>
<polygon fill="black" stroke="black" points="237.5,-83.66 234,-73.66 230.5,-83.66 237.5,-83.66"/>
</g>
<!-- 17 -->
<g id="node6" class="node">
<title>17</title>
<path fill="#7030a0" stroke="black" d="M456,-288C456,-288 336,-288 336,-288 330,-288 324,-282 324,-276 324,-276 324,-228 324,-228 324,-222 330,-216 336,-216 336,-216 456,-216 456,-216 462,-216 468,-222 468,-228 468,-228 468,-276 468,-276 468,-282 462,-288 456,-288"/>
<text text-anchor="start" x="388" y="-263.8" font-family="Calibri" font-size="14.00" fill="#ffffff">17</text>
<text text-anchor="start" x="356.5" y="-249.4" font-family="Calibri" font-weight="bold" font-size="12.00" fill="#ffffff">Patrick Whaley</text>
<text text-anchor="start" x="350" y="-231.8" font-family="Calibri" font-size="14.00" fill="#ffffff">FoundingFather</text>
</g>
<!-- 30 -->
<g id="node7" class="node">
<title>30</title>
<path fill="#7030a0" stroke="black" d="M456,-180C456,-180 336,-180 336,-180 330,-180 324,-174 324,-168 324,-168 324,-120 324,-120 324,-114 330,-108 336,-108 336,-108 456,-108 456,-108 462,-108 468,-114 468,-120 468,-120 468,-168 468,-168 468,-174 462,-180 456,-180"/>
<text text-anchor="start" x="388" y="-155.8" font-family="Calibri" font-size="14.00" fill="#ffffff">30</text>
<text text-anchor="start" x="356" y="-141.4" font-family="Calibri" font-weight="bold" font-size="12.00" fill="#ffffff">Heyward Green</text>
<text text-anchor="start" x="350" y="-123.8" font-family="Calibri" font-size="14.00" fill="#ffffff">FoundingFather</text>
</g>
<!-- 17&#45;&gt;30 -->
<g id="edge4" class="edge">
<title>17&#45;&gt;30</title>
<path fill="none" stroke="black" d="M396,-215.7C396,-207.93 396,-199.57 396,-191.43"/>
<polygon fill="black" stroke="black" points="399.5,-191.66 396,-181.66 392.5,-191.66 399.5,-191.66"/>
</g>
<!-- 62 -->
<g id="node9" class="node">
<title>62</title>
<path fill="#7030a0" stroke="black" d="M456,-72C456,-72 336,-72 336,-72 330,-72 324,-66 324,-60 324,-60 324,-12 324,-12 324,-6 330,0 336,0 336,0 456,0 456,0 462,0 468,-6 468,-12 468,-12 468,-60 468,-60 468,-66 462,-72 456,-72"/>
<text text-anchor="start" x="388" y="-47.8" font-family="Calibri" font-size="14.00" fill="#ffffff">62</text>
<text text-anchor="start" x="363" y="-33.4" font-family="Calibri" font-weight="bold" font-size="12.00" fill="#ffffff">Billy Loden II</text>
<text text-anchor="start" x="392" y="-16.8" font-family="Calibri" font-style="italic" font-size="14.00" fill="#ffffff">Β</text>
</g>
<!-- 30&#45;&gt;62 -->
<g id="edge6" class="edge">
<title>30&#45;&gt;62</title>
<path fill="none" stroke="black" d="M396,-107.7C396,-99.93 396,-91.57 396,-83.43"/>
<polygon fill="black" stroke="black" points="399.5,-83.66 396,-73.66 392.5,-83.66 399.5,-83.66"/>
</g>
</g>
</svg>
